<svg width="358" height="88" viewBox="0 0 358 88" fill="none" xmlns="http://www.w3.org/2000/svg">
<path d="M33.7 32.2999C46.4 44.9999 66.9 40.4999 66.9 40.4999C66.9 40.4999 66.9 39.1999 66.9 49.4999C66.9 59.7999 64.8 68.8999 51.9 77.0999C39 85.2999 33.7999 87.9999 33.7999 87.9999C33.7999 87.9999 28.6 85.2999 15.7 77.0999C2.79995 68.8999 0.699951 59.7999 0.699951 49.4999C0.699951 39.1999 0.699951 40.4999 0.699951 40.4999C0.699951 40.4999 21.2 44.9999 33.9 32.2999M50.2 51.8999L46.7 48.3999L31.2 63.9999L21.9 54.5999L18.4 58.0999L31.2999 70.9999L50.4 51.7999L50.2 51.8999Z" fill="#1D50D7"/>
<path d="M35.7 4.19995H31.7V27H35.7V4.19995Z" fill="#1D50D7"/>
<path d="M33.7 8.4C36.0196 8.4 37.9 6.5196 37.9 4.2C37.9 1.8804 36.0196 0 33.7 0C31.3804 0 29.5 1.8804 29.5 4.2C29.5 6.5196 31.3804 8.4 33.7 8.4Z" fill="#1D50D7"/>
<path d="M61.6999 11.9H5.29993C4.19993 11.9 3.29993 11 3.29993 9.90002C3.29993 8.80002 4.19993 7.90002 5.29993 7.90002H61.6999C62.7999 7.90002 63.6999 8.80002 63.6999 9.90002C63.6999 11 62.7999 11.9 61.6999 11.9Z" fill="#1D50D7"/>
<path d="M12.3 34.8C9.29996 34.8 3.69996 33.9 0.299957 29.4C-0.400043 28.4 0.299957 27 1.49996 27H23.1C24.3 27 25 28.4 24.3 29.4C21 33.9 15.3 34.8 12.3 34.8Z" fill="#1D50D7"/>
<path d="M19.5999 30.1C18.7999 30.1 18.0999 29.7 17.7999 28.9L10.1999 12.5C9.69994 11.5 10.1999 10.3 11.1999 9.90001C12.1999 9.40001 13.3999 9.90001 13.7999 10.9L21.3999 27.3C21.8999 28.3 21.3999 29.5 20.3999 30C20.0999 30.1 19.7999 30.2 19.5999 30.2V30.1Z" fill="#1D50D7"/>
<path d="M4.39994 30.1C4.09994 30.1 3.79994 30.1 3.59994 29.9C2.59994 29.4 2.19994 28.2 2.59994 27.2L10.1999 10.8C10.6999 9.80001 11.7999 9.40001 12.7999 9.80001C13.7999 10.3 14.1999 11.4 13.7999 12.4L6.19994 28.8C5.89994 29.5 5.09994 30 4.39994 30V30.1Z" fill="#1D50D7"/>
<path d="M55.8999 34.8C52.8999 34.8 47.2999 33.9 43.8999 29.4C43.1999 28.4 43.8999 27 45.0999 27H66.6999C67.8999 27 68.5999 28.4 67.8999 29.4C64.5999 33.9 58.8999 34.8 55.8999 34.8Z" fill="#1D50D7"/>
<path d="M63.1999 30.1C62.3999 30.1 61.6999 29.7 61.3999 28.9L53.7999 12.5C53.2999 11.5 53.7999 10.3 54.7999 9.90001C55.7999 9.40001 56.9999 9.90001 57.4999 10.9L65.0999 27.3C65.5999 28.3 65.0999 29.5 64.0999 30C63.7999 30.1 63.4999 30.2 63.2999 30.2L63.1999 30.1Z" fill="#1D50D7"/>
<path d="M47.9999 30.1C47.6999 30.1 47.3999 30.1 47.1999 29.9C46.1999 29.4 45.7999 28.2 46.1999 27.2L53.7999 10.8C54.2999 9.80001 55.4999 9.40001 56.4999 9.80001C57.4999 10.3 57.8999 11.4 57.4999 12.4L49.8999 28.8C49.5999 29.5 48.7999 30 48.0999 30L47.9999 30.1Z" fill="#1D50D7"/>
<path d="M92.1786 23.6H116.579V29.5H98.9786V40.7H114.279V46.5H98.9786V58.9H116.879V64.8H92.1786V23.6Z" fill="#1D3B5C"/>
<path d="M128.779 55.6V55.9C128.779 57.4 129.279 58.5 130.379 59.2C131.479 59.9 132.879 60.3 134.579 60.3C136.279 60.3 137.779 60 138.679 59.3C139.579 58.6 140.079 57.7 140.079 56.6C140.079 55.5 139.679 54.6 138.679 54.1C137.779 53.5 135.679 52.9 132.379 52.2C128.979 51.5 126.479 50.4 124.779 48.9C123.079 47.4 122.179 45.5 122.179 43.1C122.179 40.7 123.279 38.2 125.479 36.6C127.679 35 130.679 34.1 134.379 34.1C138.079 34.1 141.079 34.9 143.279 36.6C145.479 38.3 146.679 40.6 146.679 43.5V43.7H139.479V43.3C139.479 42.1 139.079 41.1 138.279 40.4C137.479 39.7 136.179 39.3 134.379 39.3C132.579 39.3 131.379 39.6 130.579 40.2C129.779 40.8 129.379 41.6 129.379 42.5C129.379 43.4 129.879 44.2 130.779 44.8C131.679 45.4 133.879 46 137.179 46.7C140.579 47.4 143.079 48.5 144.779 49.9C146.479 51.3 147.279 53.4 147.279 55.9C147.279 58.4 146.179 61.1 143.979 62.8C141.779 64.5 138.579 65.4 134.379 65.4C130.179 65.4 126.979 64.5 124.679 62.8C122.379 61.1 121.279 58.7 121.279 55.6V55.4H128.579L128.779 55.6Z" fill="#1D3B5C"/>
<path d="M149.579 34.9999H167.479V40.3999H149.579V34.9999ZM154.279 37.8999V37.0999V27.8999H161.579V56.3999C161.579 57.6999 161.779 58.6999 162.379 59.1999C162.879 59.6999 163.579 59.9999 164.579 59.9999C165.579 59.9999 165.479 59.9999 165.979 59.7999C166.479 59.7999 166.879 59.5999 167.379 59.3999V64.7999C166.979 64.9999 166.279 65.1999 165.479 65.3999C164.679 65.5999 163.779 65.6999 162.879 65.6999C160.279 65.6999 158.179 64.8999 156.679 63.4999C155.079 61.9999 154.279 59.6999 154.279 56.4999V37.9999V37.8999Z" fill="#1D3B5C"/>
<path d="M178.279 48.5999C180.779 46.8999 183.979 46.0999 187.779 46.0999H193.879V44.2999C193.879 42.7999 193.479 41.6 192.779 40.7C192.079 39.8 190.679 39.2999 188.779 39.2999C186.879 39.2999 185.479 39.7 184.679 40.5C183.879 41.3 183.479 42.1999 183.479 43.2999V43.5999H176.179V43.2999C176.179 40.6999 177.379 38.5999 179.679 36.7999C181.979 34.9999 185.179 34.2 188.979 34.2C192.779 34.2 195.879 35 197.979 36.7C200.179 38.4 201.179 41 201.179 44.4V58.0999C201.179 59.2999 201.279 60.4999 201.479 61.5999C201.679 62.6999 201.979 63.6 202.379 64.4V64.8H195.179C194.979 64.4 194.679 63.7999 194.579 63C194.379 62.2999 194.279 61.6 194.179 60.9C193.579 62.1 192.479 63.1 190.879 64C189.279 64.9 187.279 65.4 184.779 65.4C182.279 65.4 179.479 64.6 177.479 63C175.479 61.4 174.479 59.1 174.479 56C174.479 52.9 175.779 50.2999 178.279 48.5999ZM183.079 58.9C183.879 59.8 185.179 60.1999 186.979 60.1999C188.779 60.1999 190.479 59.6 191.779 58.4C193.079 57.2 193.779 55.7999 193.779 54.1999V50.9H188.679C186.379 50.9 184.679 51.2999 183.479 52.0999C182.279 52.8999 181.779 54 181.779 55.5C181.779 57 182.179 58.1 182.979 58.9H183.079Z" fill="#1D3B5C"/>
<path d="M207.479 34.9999H225.379V40.3999H207.479V34.9999ZM212.179 37.8999V37.0999V27.8999H219.479V56.3999C219.479 57.6999 219.679 58.6999 220.279 59.1999C220.779 59.6999 221.479 59.9999 222.479 59.9999C223.479 59.9999 223.379 59.9999 223.879 59.7999C224.379 59.7999 224.779 59.5999 225.279 59.3999V64.7999C224.879 64.9999 224.179 65.1999 223.379 65.3999C222.579 65.5999 221.679 65.6999 220.779 65.6999C218.179 65.6999 216.079 64.8999 214.579 63.4999C212.979 61.9999 212.179 59.6999 212.179 56.4999V37.9999V37.8999Z" fill="#1D3B5C"/>
<path d="M231.079 49.4C231.079 44.8 232.379 41.1 235.079 38.3C237.779 35.5 241.179 34.1 245.479 34.1C249.779 34.1 253.079 35.4 255.479 38.1C257.879 40.8 259.079 44.3 259.079 49V51.7H236.079V46.8H251.779V46.1C251.779 44.3 251.279 42.8 250.179 41.5C249.079 40.2 247.579 39.6 245.579 39.6C243.579 39.6 241.479 40.5 240.279 42.2C239.079 44 238.479 46.3 238.479 49.1V50.6C238.479 53.4 239.079 55.7 240.379 57.4C241.679 59.1 243.579 60 246.079 60C248.579 60 249.279 59.6 250.479 58.8C251.679 58 252.679 57.1 253.479 56L258.579 59.5C257.679 61.2 256.079 62.6 253.979 63.8C251.879 65 249.279 65.6 246.279 65.6C241.479 65.6 237.779 64.2 235.179 61.4C232.479 58.6 231.179 54.9 231.179 50.3V49.4H231.079Z" fill="#1D3B5C"/>
<path d="M266.579 23.6H276.279L286.879 51.7C287.079 52.3 287.279 52.9 287.479 53.5C287.679 54.1 287.779 54.7 287.979 55.3H288.179C288.279 54.7 288.479 54.1 288.679 53.5C288.879 52.9 289.079 52.3 289.279 51.7L299.979 23.6H309.879V64.8H302.379V37.3C302.379 36.7 302.379 36 302.379 35.3C302.379 34.5 302.379 33.9 302.579 33.3H302.379C302.279 33.9 302.079 34.6 301.879 35.3C301.679 36.1 301.479 36.7 301.279 37.3L290.879 64.8H284.579L274.279 37.3C274.079 36.7 273.879 36 273.679 35.3C273.479 34.5 273.279 33.9 273.179 33.3H272.979C272.979 33.9 273.079 34.6 273.079 35.3C273.079 36.1 273.079 36.7 273.079 37.3V64.8H266.579V23.6Z" fill="#1D3B5C"/>
<path d="M317.679 23.4999C318.479 22.6999 319.479 22.2999 320.879 22.2999C322.279 22.2999 323.379 22.6999 324.079 23.4999C324.779 24.2999 325.179 25.1999 325.179 26.3999C325.179 27.5999 324.779 28.4999 324.079 29.2999C323.279 30.0999 322.179 30.4999 320.779 30.4999C319.379 30.4999 318.279 30.0999 317.579 29.2999C316.779 28.4999 316.479 27.4999 316.479 26.3999C316.479 25.2999 316.879 24.2999 317.579 23.4999H317.679ZM317.179 34.9999H324.579V64.7999H317.179V34.9999Z" fill="#1D3B5C"/>
<path d="M331.279 34.9999H338.179L338.379 38.4999H338.579C339.479 37.2999 340.679 36.2999 342.179 35.4999C343.679 34.6999 345.379 34.3999 347.279 34.3999C350.379 34.3999 352.779 35.2999 354.679 36.9999C356.579 38.6999 357.479 41.6999 357.479 45.9999V64.7999H350.079V45.7999C350.079 43.7999 349.579 42.2999 348.779 41.4999C347.879 40.6999 346.579 40.1999 344.979 40.1999C343.379 40.1999 342.379 40.5999 341.279 41.2999C340.179 41.9999 339.279 43.0999 338.679 44.3999V64.7999H331.279V34.9999Z" fill="#1D3B5C"/>
</svg>
